<svg version="1.1" id="Layer1" xmlns="http://www.w3.org/2000/svg" xmlns:xlink="http://www.w3.org/1999/xlink" x="0px" y="0px"
	 width="100%" viewBox="0 -10 512 512" enable-background="new 0 0 512 512" xml:space="preserve">
<path fill="#F6F7F700" opacity="1.000000" stroke="none" 
	d="
M299.000000,513.000000 
	C199.357529,513.000000 100.215050,513.000000 1.036289,513.000000 
	C1.036289,342.399170 1.036289,171.798325 1.036289,1.098744 
	C171.559158,1.098744 342.118378,1.098744 512.838806,1.098744 
	C512.838806,171.666550 512.838806,342.333252 512.838806,513.000000 
	C441.798309,513.000000 370.649139,513.000000 299.000000,513.000000 
M202.054855,498.654602 
	C212.758224,495.066895 222.375839,489.647675 231.235992,482.578217 
	C238.360367,476.893768 246.056610,471.910950 253.652176,466.846436 
	C254.974182,465.964966 257.466919,465.437469 258.717499,466.090271 
	C264.524139,469.121338 270.227020,472.407654 275.701599,476.006348 
	C286.537964,483.129547 296.612000,491.676544 308.085358,497.498291 
	C321.693207,504.403137 340.735931,503.392609 351.450531,489.893646 
	C357.123627,482.746277 361.084290,473.980499 364.596802,465.442902 
	C368.990631,454.763275 371.867554,443.467865 375.971710,432.655548 
	C377.176361,429.481781 378.264740,425.137268 382.851929,424.539215 
	C387.253235,423.965363 391.687714,423.529572 396.120819,423.337097 
	C411.631592,422.663635 427.266144,424.738495 442.643768,421.100128 
	C458.047943,417.455475 470.244751,403.970154 470.161621,387.586700 
	C470.107269,376.874084 468.099548,366.740967 464.885559,356.700806 
	C462.068665,347.901093 459.028320,339.170288 456.361603,330.326141 
	C454.879272,325.410095 454.099884,320.485992 459.447937,316.844635 
	C462.833710,314.539337 465.702728,311.480560 469.064270,309.133148 
	C480.544830,301.116180 492.475281,293.759064 502.046387,283.236420 
	C512.558472,271.679291 515.288452,253.993149 508.487762,240.531097 
	C502.540558,228.758484 492.352661,221.193985 482.007172,213.699524 
	C473.491364,207.530579 465.253571,200.974274 456.986145,194.470657 
	C455.957703,193.661636 454.683777,191.931503 454.912292,190.952240 
	C456.798035,182.871643 458.465149,174.672424 461.246429,166.883331 
	C466.148315,153.155304 470.983978,139.500854 469.957428,124.621483 
	C469.271118,114.673668 465.197784,106.536896 457.207703,100.184143 
	C448.335266,93.129890 437.849854,91.420517 427.239929,90.857758 
	C414.946869,90.205742 402.591919,90.784935 390.265228,90.675705 
	C383.745850,90.617935 378.147278,89.332695 375.712494,81.791290 
	C371.159424,67.688766 366.353088,53.647858 361.033508,39.819298 
	C356.746277,28.674440 350.103424,19.258572 338.057709,15.039877 
	C323.381805,9.900027 310.045105,13.618615 297.771332,21.755072 
	C287.652771,28.462803 278.286591,36.302784 268.195190,43.055500 
	C264.434753,45.571842 259.015656,48.528374 255.321579,47.565952 
	C249.220566,45.976437 243.763275,41.585438 238.290192,37.986507 
	C227.463699,30.867302 217.376785,22.385031 205.938721,16.497021 
	C192.841431,9.754869 174.124359,10.900133 162.708206,23.559608 
	C153.143890,34.165558 148.943787,47.553265 145.090668,60.719826 
	C142.517792,69.511658 140.427292,78.290756 135.494064,86.094185 
	C134.682739,87.377533 133.510010,89.058670 132.250977,89.315834 
	C128.402847,90.101860 124.440514,90.472801 120.505928,90.666527 
	C104.161293,91.471298 87.623055,88.777885 71.476768,92.963547 
	C57.956718,96.468391 48.269539,104.272781 45.001385,118.531891 
	C41.452404,134.016251 46.243069,148.378876 50.971489,162.759293 
	C53.501366,170.453339 56.098251,178.135666 58.268791,185.933533 
	C59.516525,190.416153 58.607998,194.498077 54.281059,197.437805 
	C51.025665,199.649521 48.281593,202.610718 45.038582,204.844345 
	C33.504299,212.788574 21.619373,220.194763 12.025402,230.691132 
	C1.427272,242.286133 -1.261472,259.926239 5.462427,273.381317 
	C11.361367,285.185577 21.539267,292.806671 31.917593,300.247589 
	C39.526772,305.703094 46.876339,311.526764 54.572021,316.853455 
	C59.705524,320.406647 59.197636,325.224121 57.854118,329.902710 
	C55.042660,339.693207 51.687298,349.327667 48.546268,359.023315 
	C45.226875,369.269501 43.054306,379.730804 44.078972,390.533142 
	C44.964504,399.868652 49.000824,407.645233 56.524422,413.636536 
	C65.643845,420.898621 76.451599,422.667480 87.444199,423.164612 
	C99.578438,423.713379 111.767136,423.003540 123.909889,423.448486 
	C128.051559,423.600220 133.208878,422.808838 135.908447,427.552063 
	C137.689514,430.681488 139.351028,433.952911 140.505463,437.351196 
	C144.011948,447.673340 146.605957,458.354950 150.788193,468.382385 
	C154.142853,476.425598 158.081299,484.855377 163.919617,491.092834 
	C174.009460,501.872467 187.288254,503.513214 202.054855,498.654602 
z"/>
<path fill="#01B290" opacity="1.000000" stroke="none" 
	d="
M201.654266,498.760468 
	C187.288254,503.513214 174.009460,501.872467 163.919617,491.092834 
	C158.081299,484.855377 154.142853,476.425598 150.788193,468.382385 
	C146.605957,458.354950 144.011948,447.673340 140.505463,437.351196 
	C139.351028,433.952911 137.689514,430.681488 135.908447,427.552063 
	C133.208878,422.808838 128.051559,423.600220 123.909889,423.448486 
	C111.767136,423.003540 99.578438,423.713379 87.444199,423.164612 
	C76.451599,422.667480 65.643845,420.898621 56.524422,413.636536 
	C49.000824,407.645233 44.964504,399.868652 44.078972,390.533142 
	C43.054306,379.730804 45.226875,369.269501 48.546268,359.023315 
	C51.687298,349.327667 55.042660,339.693207 57.854118,329.902710 
	C59.197636,325.224121 59.705524,320.406647 54.572021,316.853455 
	C46.876339,311.526764 39.526772,305.703094 31.917593,300.247589 
	C21.539267,292.806671 11.361367,285.185577 5.462427,273.381317 
	C-1.261472,259.926239 1.427272,242.286133 12.025402,230.691132 
	C21.619373,220.194763 33.504299,212.788574 45.038582,204.844345 
	C48.281593,202.610718 51.025665,199.649521 54.281059,197.437805 
	C58.607998,194.498077 59.516525,190.416153 58.268791,185.933533 
	C56.098251,178.135666 53.501366,170.453339 50.971489,162.759293 
	C46.243069,148.378876 41.452404,134.016251 45.001385,118.531891 
	C48.269539,104.272781 57.956718,96.468391 71.476768,92.963547 
	C87.623055,88.777885 104.161293,91.471298 120.505928,90.666527 
	C124.440514,90.472801 128.402847,90.101860 132.250977,89.315834 
	C133.510010,89.058670 134.682739,87.377533 135.494064,86.094185 
	C140.427292,78.290756 142.517792,69.511658 145.090668,60.719826 
	C148.943787,47.553265 153.143890,34.165558 162.708206,23.559608 
	C174.124359,10.900133 192.841431,9.754869 205.938721,16.497021 
	C217.376785,22.385031 227.463699,30.867302 238.290192,37.986507 
	C243.763275,41.585438 249.220566,45.976437 255.321579,47.565952 
	C259.015656,48.528374 264.434753,45.571842 268.195190,43.055500 
	C278.286591,36.302784 287.652771,28.462803 297.771332,21.755072 
	C310.045105,13.618615 323.381805,9.900027 338.057709,15.039877 
	C350.103424,19.258572 356.746277,28.674440 361.033508,39.819298 
	C366.353088,53.647858 371.159424,67.688766 375.712494,81.791290 
	C378.147278,89.332695 383.745850,90.617935 390.265228,90.675705 
	C402.591919,90.784935 414.946869,90.205742 427.239929,90.857758 
	C437.849854,91.420517 448.335266,93.129890 457.207703,100.184143 
	C465.197784,106.536896 469.271118,114.673668 469.957428,124.621483 
	C470.983978,139.500854 466.148315,153.155304 461.246429,166.883331 
	C458.465149,174.672424 456.798035,182.871643 454.912292,190.952240 
	C454.683777,191.931503 455.957703,193.661636 456.986145,194.470657 
	C465.253571,200.974274 473.491364,207.530579 482.007172,213.699524 
	C492.352661,221.193985 502.540558,228.758484 508.487762,240.531097 
	C515.288452,253.993149 512.558472,271.679291 502.046387,283.236420 
	C492.475281,293.759064 480.544830,301.116180 469.064270,309.133148 
	C465.702728,311.480560 462.833710,314.539337 459.447937,316.844635 
	C454.099884,320.485992 454.879272,325.410095 456.361603,330.326141 
	C459.028320,339.170288 462.068665,347.901093 464.885559,356.700806 
	C468.099548,366.740967 470.107269,376.874084 470.161621,387.586700 
	C470.244751,403.970154 458.047943,417.455475 442.643768,421.100128 
	C427.266144,424.738495 411.631592,422.663635 396.120819,423.337097 
	C391.687714,423.529572 387.253235,423.965363 382.851929,424.539215 
	C378.264740,425.137268 377.176361,429.481781 375.971710,432.655548 
	C371.867554,443.467865 368.990631,454.763275 364.596802,465.442902 
	C361.084290,473.980499 357.123627,482.746277 351.450531,489.893646 
	C340.735931,503.392609 321.693207,504.403137 308.085358,497.498291 
	C296.612000,491.676544 286.537964,483.129547 275.701599,476.006348 
	C270.227020,472.407654 264.524139,469.121338 258.717499,466.090271 
	C257.466919,465.437469 254.974182,465.964966 253.652176,466.846436 
	C246.056610,471.910950 238.360367,476.893768 231.235992,482.578217 
	C222.375839,489.647675 212.758224,495.066895 201.654266,498.760468 
M163.897064,354.156830 
	C165.473099,362.600128 168.176895,370.415985 173.556274,377.448730 
	C180.960083,387.128143 190.252991,393.704163 201.874985,396.822174 
	C211.679306,399.452545 221.756073,399.640411 231.728500,397.863617 
	C241.989624,396.035370 251.322479,391.994446 258.197632,383.786621 
	C265.893341,374.599213 269.058472,363.646057 269.088013,351.874420 
	C269.201813,306.543884 269.130859,261.212860 269.128754,215.882034 
	C269.128662,214.142654 269.128754,212.403290 269.128754,210.852112 
	C270.218445,210.588196 270.569855,210.381287 270.851044,210.452316 
	C293.483185,216.169434 313.656342,226.706619 331.803650,241.323654 
	C335.469452,244.276337 339.503113,246.213943 344.607788,243.861145 
	C349.743622,241.493958 351.727936,237.814362 351.216644,232.385513 
	C350.769318,227.635864 350.541687,222.865234 350.076965,218.117569 
	C348.897095,206.064468 344.188843,195.420502 337.160034,185.657791 
	C330.433105,176.314377 321.379669,170.172592 311.363068,164.707687 
	C301.625305,159.394928 292.103607,153.280930 283.650024,146.141663 
	C276.261932,139.902191 271.822266,130.934158 267.547760,122.119881 
	C266.302887,119.552864 263.165039,117.040489 260.393463,116.240700 
	C252.391754,113.931686 245.954361,119.628769 245.950363,128.435379 
	C245.926529,181.099136 245.937561,233.762909 245.936905,286.426666 
	C245.936890,288.342316 245.936905,290.257965 245.936905,291.758209 
	C231.792145,292.428406 218.406036,293.197876 205.009384,293.662964 
	C188.521591,294.235352 174.045975,307.887146 168.123138,321.683502 
	C163.762756,331.840393 163.508423,342.469757 163.897064,354.156830 
z"/>
<path fill="#F6F7F700" opacity="1.000000" stroke="none" 
	d="
M163.893982,353.689453 
	C163.508423,342.469757 163.762756,331.840393 168.123138,321.683502 
	C174.045975,307.887146 188.521591,294.235352 205.009384,293.662964 
	C218.406036,293.197876 231.792145,292.428406 245.936905,291.758209 
	C245.936905,290.257965 245.936890,288.342316 245.936905,286.426666 
	C245.937561,233.762909 245.926529,181.099136 245.950363,128.435379 
	C245.954361,119.628769 252.391754,113.931686 260.393463,116.240700 
	C263.165039,117.040489 266.302887,119.552864 267.547760,122.119881 
	C271.822266,130.934158 276.261932,139.902191 283.650024,146.141663 
	C292.103607,153.280930 301.625305,159.394928 311.363068,164.707687 
	C321.379669,170.172592 330.433105,176.314377 337.160034,185.657791 
	C344.188843,195.420502 348.897095,206.064468 350.076965,218.117569 
	C350.541687,222.865234 350.769318,227.635864 351.216644,232.385513 
	C351.727936,237.814362 349.743622,241.493958 344.607788,243.861145 
	C339.503113,246.213943 335.469452,244.276337 331.803650,241.323654 
	C313.656342,226.706619 293.483185,216.169434 270.851044,210.452316 
	C270.569855,210.381287 270.218445,210.588196 269.128754,210.852112 
	C269.128754,212.403290 269.128662,214.142654 269.128754,215.882034 
	C269.130859,261.212860 269.201813,306.543884 269.088013,351.874420 
	C269.058472,363.646057 265.893341,374.599213 258.197632,383.786621 
	C251.322479,391.994446 241.989624,396.035370 231.728500,397.863617 
	C221.756073,399.640411 211.679306,399.452545 201.874985,396.822174 
	C190.252991,393.704163 180.960083,387.128143 173.556274,377.448730 
	C168.176895,370.415985 165.473099,362.600128 163.893982,353.689453 
z"/>
</svg>